<svg width="17" height="17" viewBox="0 0 17 17" fill="none" xmlns="http://www.w3.org/2000/svg">
        <path d="M16.2598 8.25983C16.2598 8.43664 16.1895 8.60621 16.0645 8.73123C15.9395 8.85626 15.7699 8.92649 15.5931 8.92649H8.92643V15.5932C8.92643 15.77 8.8562 15.9395 8.73117 16.0646C8.60615 16.1896 8.43658 16.2598 8.25977 16.2598C8.08295 16.2598 7.91339 16.1896 7.78836 16.0646C7.66334 15.9395 7.5931 15.77 7.5931 15.5932V8.92649H0.926432C0.749621 8.92649 0.580052 8.85626 0.455028 8.73123C0.330004 8.60621 0.259766 8.43664 0.259766 8.25983C0.259766 8.08302 0.330004 7.91345 0.455028 7.78842C0.580052 7.6634 0.749621 7.59316 0.926432 7.59316H7.5931V0.926493C7.5931 0.749682 7.66334 0.580113 7.78836 0.455089C7.91339 0.330065 8.08295 0.259827 8.25977 0.259827C8.43658 0.259827 8.60615 0.330065 8.73117 0.455089C8.8562 0.580113 8.92643 0.749682 8.92643 0.926493V7.59316H15.5931C15.7699 7.59316 15.9395 7.6634 16.0645 7.78842C16.1895 7.91345 16.2598 8.08302 16.2598 8.25983Z" fill="#16161D"/>
      </svg>