<svg width="8" height="16" viewBox="0 0 8 16" fill="none" xmlns="http://www.w3.org/2000/svg">
  <path d="M0.213391 4.15126C0.145776 4.08372 0.0921354 4.00351 0.0555378 3.91523C0.0189402 3.82694 0.000102639 3.73231 0.000102647 3.63674C0.000102655 3.54117 0.0189402 3.44654 0.0555379 3.35825C0.0921355 3.26997 0.145776 3.18976 0.213391 3.12222L3.12234 0.213278C3.18988 0.145663 3.27008 0.0920229 3.35837 0.0554253C3.44665 0.0188277 3.54129 -7.95567e-06 3.63686 -7.94731e-06C3.73243 -7.93896e-06 3.82706 0.0188277 3.91534 0.0554254C4.00363 0.092023 4.08383 0.145663 4.15137 0.213278L7.06032 3.12222C7.12789 3.18979 7.18148 3.27001 7.21805 3.35829C7.25462 3.44657 7.27344 3.54119 7.27344 3.63674C7.27344 3.7323 7.25462 3.82692 7.21805 3.9152C7.18148 4.00348 7.12789 4.0837 7.06032 4.15126C6.92386 4.28772 6.73878 4.36438 6.5458 4.36438C6.45024 4.36438 6.35562 4.34556 6.26734 4.309C6.17906 4.27243 6.09885 4.21883 6.03128 4.15126L4.36409 2.48316L4.36409 15.2725C4.36409 15.4654 4.28747 15.6504 4.15109 15.7868C4.0147 15.9231 3.82973 15.9998 3.63685 15.9998C3.44398 15.9998 3.259 15.9231 3.12262 15.7868C2.98624 15.6504 2.90962 15.4654 2.90962 15.2725L2.90962 2.48316L1.24243 4.15126C1.17489 4.21888 1.09468 4.27252 1.0064 4.30912C0.918114 4.34571 0.823481 4.36455 0.727911 4.36455C0.632341 4.36455 0.537708 4.34571 0.449423 4.30912C0.361138 4.27252 0.280932 4.21888 0.213391 4.15126Z" fill="#3B415C"/>
</svg>
